<svg xmlns="http://www.w3.org/2000/svg" viewBox="0 0 84 84" width="840" height="840">
	<style>
		tspan { white-space:pre }
		.shp0 { fill: #000000 } 
	</style>
	<g id="Layer copy 10">
		<path id="Layer" class="shp0" d="M78 9L78 3L6 3L6 9L36 9L36 15L30.01 15L30.01 21L36.01 21L36.01 15L42 15L42 9L48 9L48 15L54 15L54 9L60 9L60 15L66 15L66 9L72 9L72 15L78 15L78 21L72 21L72 27L78 27L78 33L72 33L72 39L78 39L78 45L72 45L72 39L66 39L66 45L60.02 45L60.02 39L66 39L66 33L60 33L60 39L54.02 39L54.02 45L54 45L48.02 45L48.02 39L42.02 39L42.02 45L42 45L36.01 45L36.01 39L30.01 39L30.01 45L30 45L24 45L24 39L18 39L18 45L12 45L6 45L6 9L0 9L0 51L6 51L6 57L30 57L30 63L24 63L24 69L60 69L60 63L54 63L54 57L78 57L78 51L84 51L84 9L78 9Z" />
		<path id="Layer" class="shp0" d="M66 15L72 15L72 21L66 21L66 15Z" />
		<path id="Layer" class="shp0" d="M54 15L60 15L60 21L54 21L54 15Z" />
		<path id="Layer" class="shp0" d="M42 15L48 15L48 21L42 21L42 15Z" />
		<path id="Layer" class="shp0" d="M48 27L42.02 27L42.02 33L48.02 33L48.02 27L54 27L54 33L60 33L60 27L54 27L54 21L48 21L48 27Z" />
		<path id="Layer" class="shp0" d="M30.01 27L36.01 27L36.01 33L30.01 33L30.01 27Z" />
		<path id="Layer" class="shp0" d="M60 21L66 21L66 27L60 27L60 21Z" />
		<path id="Layer" class="shp0" d="M66 27L72 27L72 33L66 33L66 27Z" />
		<path id="Layer" class="shp0" d="M18 75L66 75L66 81L18 81L18 75Z" />
	</g>
</svg>